<?xml version="1.0" standalone="no"?>
<!DOCTYPE svg PUBLIC "-//W3C//DTD SVG 20010904//EN"
 "http://www.w3.org/TR/2001/REC-SVG-20010904/DTD/svg10.dtd">
<svg version="1.0" xmlns="http://www.w3.org/2000/svg"
 width="690.000000pt" height="690.000000pt" viewBox="0 0 690.000000 690.000000"
 preserveAspectRatio="xMidYMid meet">
<metadata>
Created by potrace 1.14, written by Peter Selinger 2001-2017
</metadata>
<g transform="translate(0.000000,690.000000) scale(0.100000,-0.100000)"
fill="#000000" stroke="none">
<path d="M2639 6878 c-1 -13 -2 -62 -2 -110 0 -83 -1 -87 -26 -98 -14 -7 -27
-11 -29 -11 -1 1 -13 -10 -26 -24 -13 -14 -28 -25 -34 -25 -5 0 -13 -7 -16
-16 -4 -9 -9 -14 -12 -11 -9 8 -67 -14 -82 -32 -11 -13 -12 -13 -7 -1 4 8 -1
6 -9 -4 -9 -11 -16 -16 -16 -11 0 4 -9 0 -19 -9 -11 -10 -25 -15 -32 -10 -7 4
-10 3 -5 -4 3 -6 -2 -13 -11 -16 -26 -8 -94 -71 -86 -79 3 -4 -3 -7 -15 -7
-14 0 -20 -5 -16 -13 3 -8 -7 -19 -23 -28 -15 -8 -34 -21 -41 -29 -12 -13 -13
-13 -6 0 4 9 -2 7 -13 -5 -11 -11 -19 -23 -16 -27 2 -5 -3 -8 -11 -8 -9 0 -15
-4 -13 -8 1 -4 -16 -26 -38 -49 -59 -61 -95 -103 -95 -109 0 -3 -11 -17 -25
-32 -14 -15 -25 -31 -25 -36 0 -5 -12 -21 -27 -36 -37 -36 -86 -94 -84 -98 1
-2 -8 -12 -20 -23 -12 -10 -18 -19 -14 -19 4 0 -6 -13 -22 -29 -25 -23 -38
-28 -74 -26 -24 1 -53 -3 -64 -9 -23 -12 -75 -16 -75 -5 0 8 -19 7 -35 -2 -5
-3 -20 -4 -32 -3 -13 0 -23 -3 -23 -8 0 -5 -5 -6 -10 -3 -6 3 -13 -1 -16 -9
-3 -9 -10 -13 -15 -10 -5 3 -9 1 -9 -5 0 -5 -13 -18 -29 -27 -17 -10 -27 -22
-24 -27 3 -6 2 -8 -3 -4 -16 9 -45 -20 -50 -50 -8 -53 -11 -123 -6 -128 6 -5
7 -12 16 -60 6 -32 27 -85 35 -85 3 0 17 -10 31 -22 34 -32 95 -58 131 -58 19
0 28 -4 23 -11 -5 -8 -1 -8 13 0 11 6 22 9 24 7 11 -9 60 -16 55 -7 -4 6 4 7
21 2 16 -4 48 -6 73 -5 25 1 51 -3 59 -9 12 -10 13 -9 6 3 -8 13 -6 13 8 1 9
-7 24 -11 32 -7 9 3 13 2 10 -4 -3 -6 1 -10 10 -10 10 0 13 5 9 13 -5 8 -2 8
9 -2 14 -11 17 -11 17 0 0 10 3 10 11 2 8 -8 -2 -24 -38 -60 -127 -124 -180
-169 -203 -170 -20 -2 -22 0 -10 8 11 7 6 9 -18 5 -18 -2 -30 0 -26 5 3 5 10
7 15 4 5 -3 6 1 3 9 -3 9 -10 16 -16 16 -5 0 -6 -4 -3 -10 7 -11 -8 -14 -19
-3 -10 11 -37 12 -30 2 3 -5 10 -7 15 -4 5 4 9 1 9 -4 0 -15 -16 -14 -32 2
-15 14 -51 19 -42 6 3 -5 1 -9 -5 -9 -5 0 -12 6 -14 13 -4 10 -6 10 -6 0 -1
-7 -11 -13 -24 -13 -13 0 -29 6 -36 13 -11 10 -12 9 -6 -3 7 -12 6 -13 -6 -3
-8 6 -17 12 -21 12 -5 1 -9 1 -10 2 -23 7 -61 2 -66 -9 -4 -11 -6 -11 -13 0
-7 11 -11 10 -19 -2 -5 -8 -10 -10 -10 -4 0 7 -9 14 -20 17 -11 3 -17 1 -14
-4 3 -6 -6 -8 -21 -5 -16 3 -28 0 -31 -8 -7 -17 -96 -15 -118 3 -14 12 -16 12
-11 -1 8 -21 -44 -19 -71 2 -18 14 -18 14 -5 -2 12 -16 11 -18 -18 -14 -17 2
-34 0 -37 -5 -2 -4 -15 -4 -29 1 -16 6 -25 5 -29 -3 -3 -9 -5 -9 -5 1 -1 10
-6 10 -22 2 -11 -6 -37 -11 -57 -10 -20 1 -39 1 -42 0 -3 -1 -18 -3 -35 -4
-16 -1 -36 -5 -42 -9 -7 -5 -13 -4 -13 2 0 7 -8 7 -27 0 -14 -5 -33 -7 -40 -5
-8 3 -11 1 -8 -4 4 -6 -6 -8 -24 -6 -17 2 -28 -1 -25 -5 3 -5 -6 -9 -20 -9
-14 0 -28 -5 -31 -10 -4 -6 -13 -7 -23 -1 -22 11 -41 4 -74 -27 -15 -14 -30
-23 -33 -20 -12 12 -73 -58 -80 -90 -6 -29 -3 -37 28 -67 33 -32 117 -82 117
-69 0 4 7 1 15 -6 8 -7 15 -10 15 -7 0 3 16 -1 35 -9 19 -8 38 -14 42 -13 22
4 33 -2 27 -13 -5 -9 -2 -9 9 1 12 9 21 10 29 3 12 -9 124 -25 172 -23 11 0
28 -5 39 -10 15 -9 18 -8 12 2 -6 9 -3 10 11 5 10 -5 26 -8 34 -9 8 0 20 -4
27 -9 7 -5 14 -5 18 2 4 7 13 6 28 -2 12 -6 22 -11 22 -11 0 0 10 5 23 12 12
6 22 8 22 4 0 -4 48 -9 108 -10 156 -2 202 -5 202 -14 0 -4 13 -6 29 -4 31 4
49 -18 32 -39 -5 -6 -27 -45 -49 -86 -22 -41 -64 -120 -94 -175 -29 -55 -60
-116 -67 -135 -30 -74 -51 -119 -61 -125 -5 -3 -15 -24 -21 -45 -7 -22 -17
-40 -22 -40 -6 0 -7 -3 -4 -6 3 -4 1 -16 -5 -28 -7 -11 -11 -24 -10 -28 1 -5
-3 -8 -10 -8 -6 0 -9 -3 -6 -6 3 -3 -7 -42 -24 -87 -56 -156 -66 -182 -79
-212 -7 -16 -13 -39 -14 -50 -2 -25 -135 -418 -144 -425 -3 -3 -8 -14 -10 -25
-3 -19 -20 -71 -85 -252 -34 -96 -136 -287 -136 -255 0 7 -5 10 -10 7 -8 -5
-7 -11 1 -21 9 -11 8 -18 -3 -32 -9 -9 -18 -26 -22 -38 -11 -35 -53 -86 -61
-74 -5 8 -12 4 -23 -11 -11 -16 -12 -24 -4 -27 7 -2 9 -8 6 -14 -4 -6 -10 -5
-15 3 -6 11 -11 11 -21 1 -14 -14 -32 -16 -23 -2 3 6 -1 7 -10 3 -12 -4 -13
-8 -5 -13 8 -5 6 -12 -9 -22 -19 -13 -20 -16 -6 -22 10 -4 14 -2 9 6 -5 7 -3
8 6 3 10 -6 10 -11 -3 -20 -10 -7 -17 -19 -17 -28 0 -8 -21 -36 -46 -62 -32
-32 -45 -51 -41 -65 3 -11 0 -18 -7 -17 -6 1 -10 -3 -9 -10 2 -10 -110 -117
-143 -136 -11 -6 -14 -42 -14 -173 0 -161 0 -165 19 -152 15 10 55 13 163 11
145 -3 263 9 308 32 14 7 42 15 63 19 20 4 37 10 37 15 0 4 6 8 14 8 21 0 9
-26 -47 -102 -91 -124 -172 -218 -251 -292 -42 -39 -76 -76 -76 -81 0 -27 29
-29 145 -12 109 16 149 27 240 65 17 6 58 22 92 35 34 12 92 42 129 66 37 24
70 44 74 44 4 0 13 7 21 16 11 14 13 14 21 -1 5 -8 11 -25 14 -38 9 -41 17
-262 9 -255 -4 4 -17 1 -29 -7 -26 -19 -37 -19 -30 0 4 8 11 12 17 8 6 -3 7
-1 3 5 -4 6 -13 9 -21 6 -8 -4 -12 -10 -9 -15 8 -13 -10 -11 -24 3 -10 10 -17
7 -35 -12 -17 -19 -18 -21 -2 -8 14 12 25 14 35 8 14 -9 13 -11 -10 -14 -5 0
-14 -6 -19 -11 -8 -8 1 -11 29 -11 21 0 37 3 34 8 -3 4 -2 8 2 8 12 0 33 -34
34 -53 0 -12 4 -16 13 -11 9 6 9 4 -1 -8 -9 -11 -10 -18 -2 -23 5 -3 10 -11
10 -16 0 -6 -3 -8 -7 -6 -5 3 -9 -41 -11 -97 -3 -105 -29 -267 -89 -546 -66
-309 -73 -345 -83 -380 -5 -19 -10 -38 -10 -42 0 -5 1177 -8 2616 -8 2089 0
2615 3 2611 13 -2 6 -12 39 -22 72 -10 33 -33 105 -51 160 -62 191 -162 619
-167 722 -1 17 -5 35 -9 39 -5 4 -8 19 -8 34 0 15 -3 30 -7 34 -4 3 -8 14 -9
24 -16 99 -42 204 -52 211 -10 6 -10 11 3 21 20 17 115 154 140 203 11 20 23
37 28 37 4 0 5 -6 2 -12 -4 -7 0 -6 7 3 12 14 15 14 27 2 7 -8 22 -13 32 -10
23 6 30 -13 23 -71 -9 -76 -51 -271 -74 -346 -27 -87 -14 -106 27 -39 37 59
123 259 123 285 0 5 7 25 15 44 l15 35 34 -28 c21 -16 31 -30 25 -34 -7 -4 -5
-14 7 -27 10 -12 21 -19 25 -16 5 3 28 -4 51 -14 130 -58 251 -84 416 -89 135
-5 142 -5 142 14 0 10 -7 28 -16 39 -8 10 -13 14 -10 8 3 -7 -8 -5 -29 4 -19
9 -31 20 -28 25 3 6 2 7 -4 4 -14 -9 -58 23 -99 71 -20 23 -40 39 -45 36 -13
-8 -40 16 -32 29 3 5 2 7 -4 4 -11 -7 -95 76 -113 113 -10 21 -10 23 1 12 17
-15 44 -15 61 1 9 9 62 12 188 12 96 0 201 4 233 8 l57 8 0 174 0 173 -52 43
c-239 201 -452 581 -618 1102 -6 20 -17 37 -23 37 -7 0 -22 31 -34 68 -35 108
-127 350 -170 447 -22 50 -52 119 -67 155 -32 75 -74 158 -91 180 -6 8 -28 49
-49 90 -35 73 -76 145 -93 165 -4 6 -13 22 -20 36 -9 22 -39 69 -96 154 -44
64 -129 199 -133 210 -5 12 73 12 314 2 30 -2 56 1 59 6 2 4 11 3 18 -3 8 -7
18 -9 23 -7 4 3 14 2 22 -3 13 -8 13 -11 1 -22 -9 -8 -11 -9 -7 -1 3 6 3 14
-2 17 -4 2 -9 -5 -9 -16 -2 -18 2 -19 35 -14 20 3 53 8 72 11 19 3 42 8 50 12
28 11 45 15 86 18 23 1 48 6 55 10 12 7 12 5 1 -6 -7 -8 -26 -15 -43 -15 -52
-2 -55 -4 -55 -24 0 -11 4 -20 8 -20 4 0 8 5 8 11 0 8 6 7 17 -2 9 -8 14 -9
10 -3 -4 8 19 15 71 23 42 7 97 17 122 22 25 5 54 11 65 13 11 3 31 7 45 11
14 3 36 8 50 11 42 8 123 36 163 56 20 10 37 16 37 13 0 -3 10 3 22 14 11 11
25 18 30 15 5 -3 8 -2 6 3 -1 4 2 22 6 40 9 39 -5 68 -52 108 -55 46 -115 74
-193 90 -40 9 -98 23 -128 32 -76 23 -90 24 -63 6 30 -21 28 -37 -4 -29 -15 4
-49 9 -78 12 -109 10 -140 15 -168 30 -32 17 -47 12 -30 -9 19 -22 -2 -39 -39
-32 -60 12 -369 15 -369 3 0 -5 -7 -8 -15 -4 -8 3 -15 2 -15 -3 0 -9 -142 -7
-158 3 -7 4 -12 2 -12 -4 0 -6 -5 -8 -12 -4 -7 4 -24 8 -38 9 -14 0 -35 4 -47
8 -13 5 -28 5 -35 0 -21 -12 -48 -14 -48 -2 0 5 -4 7 -10 4 -6 -4 -7 1 -3 11
4 11 8 13 11 6 2 -7 8 -9 13 -6 14 8 -11 35 -25 27 -6 -3 -7 -2 -3 3 5 5 13 9
19 9 6 0 12 7 13 16 2 9 -3 16 -11 16 -7 0 -10 -5 -7 -10 4 -6 0 -8 -9 -5 -12
5 -14 0 -12 -23 2 -18 0 -28 -6 -24 -6 3 -10 1 -10 -5 0 -6 -4 -8 -10 -5 -6 3
-7 -1 -4 -9 3 -9 12 -16 20 -16 7 0 16 -11 20 -25 3 -14 10 -25 15 -25 5 0 9
-9 9 -20 0 -32 -13 -24 -67 38 -94 107 -348 357 -378 372 -16 8 -34 21 -38 28
-4 7 -30 25 -56 40 -50 29 -199 143 -200 153 -1 3 10 5 24 4 14 -2 25 -1 25 1
0 10 -51 84 -58 84 -4 0 -42 33 -83 73 -91 87 -126 117 -138 117 -5 0 -11 3
-13 8 -6 15 -125 90 -206 131 -194 97 -345 128 -620 128 -106 0 -195 3 -198 6
-10 9 -5 177 6 196 5 10 7 21 5 25 -3 3 -2 4 2 1 3 -3 18 2 32 12 21 13 56 17
191 19 177 3 240 -3 390 -37 169 -38 319 -100 443 -182 32 -21 71 -44 87 -51
33 -14 121 -87 197 -163 58 -60 113 -148 119 -196 3 -18 8 -39 11 -47 3 -8 7
-22 9 -30 2 -8 8 -16 14 -18 5 -2 7 -9 3 -15 -4 -8 -1 -8 9 1 13 10 18 9 29
-5 13 -17 13 -17 -6 -3 -19 14 -19 14 -6 -2 7 -10 20 -18 27 -18 13 0 16 -7
13 -27 0 -3 6 -10 15 -15 8 -5 13 -15 10 -23 -4 -8 -1 -15 6 -15 6 0 8 -4 5
-10 -3 -5 -1 -10 6 -10 7 0 10 -3 6 -6 -3 -3 5 -18 19 -33 13 -14 27 -34 30
-44 3 -9 10 -14 16 -11 6 4 8 2 4 -4 -3 -6 -2 -13 4 -17 6 -4 8 -11 5 -16 -4
-5 -1 -9 4 -9 6 0 11 -8 11 -19 0 -20 24 -72 34 -72 3 -1 15 -3 25 -6 11 -3
22 -4 25 -2 2 2 13 -7 24 -21 l21 -25 -5 25 c-4 18 -3 21 4 11 6 -8 17 -11 27
-7 12 4 18 0 22 -14 4 -17 8 -18 27 -8 19 10 20 10 7 -6 -11 -13 -11 -16 -2
-14 8 2 15 -5 16 -15 4 -24 15 -35 15 -16 0 11 2 12 9 1 7 -11 9 -11 14 2 4 9
1 15 -6 13 -7 -1 -11 4 -9 11 1 8 -1 11 -6 8 -5 -3 -9 1 -9 8 0 8 6 12 14 9 7
-3 13 -9 13 -14 0 -5 7 -9 16 -9 9 0 12 5 8 13 -5 7 -1 7 10 -2 15 -13 16 -15
2 -23 -18 -10 -21 -28 -5 -28 5 0 8 4 4 9 -3 5 4 12 15 16 11 3 20 11 20 16 0
6 -4 7 -10 4 -5 -3 -10 -1 -10 4 0 15 27 14 33 -1 3 -8 6 -6 6 5 1 9 6 17 12
17 5 0 7 5 4 10 -4 6 -3 10 2 9 4 -1 10 0 13 1 3 1 21 3 40 5 19 1 35 3 35 4
0 1 18 5 40 7 22 3 42 9 45 13 3 4 24 7 47 7 23 -1 39 1 37 3 -4 4 39 33 81
56 32 17 51 69 50 137 -1 35 -5 72 -10 82 -6 15 -5 18 6 12 8 -4 3 2 -11 14
-14 12 -18 18 -10 14 13 -7 13 -5 1 9 -7 9 -11 17 -7 17 9 0 -26 33 -59 55
-51 34 -80 43 -131 41 -27 -1 -62 1 -79 5 -16 4 -52 10 -79 13 -26 3 -49 6
-50 8 -36 51 -44 66 -39 72 6 5 -11 10 -29 7 -3 0 -5 7 -3 17 1 9 -2 23 -8 30
-5 6 -7 12 -3 12 9 0 -23 38 -76 92 -26 26 -59 68 -74 94 -15 25 -33 48 -40
51 -8 3 -14 12 -14 19 0 8 -8 18 -17 21 -10 4 -42 30 -71 57 -30 28 -66 57
-80 65 -34 17 -122 111 -105 111 3 0 -2 9 -12 20 -10 11 -26 20 -36 20 -10 0
-24 6 -31 13 -24 23 -154 103 -227 141 -20 10 -49 29 -64 42 -16 13 -35 24
-42 24 -7 0 -76 18 -152 41 -257 75 -271 79 -333 84 -25 2 -65 6 -90 9 -25 3
-92 8 -150 11 -122 7 -140 11 -140 31 0 12 -59 14 -400 14 l-400 0 -1 -22z
m238 -818 c-6 -16 -32 -38 -69 -58 -32 -18 -74 -46 -92 -63 -19 -16 -37 -29
-41 -29 -8 0 -86 -63 -154 -125 -48 -43 -59 -55 -94 -97 -12 -15 -76 -62 -142
-104 -155 -98 -156 -99 -148 -78 5 12 3 15 -6 9 -11 -6 -11 -3 0 16 17 33 52
83 64 91 6 4 6 8 2 8 -5 0 0 16 12 36 12 19 15 32 9 28 -11 -6 12 26 32 46 3
3 12 18 20 34 18 36 89 106 107 106 12 0 17 13 14 33 0 4 4 7 11 7 6 0 9 2 6
5 -8 9 113 125 124 119 5 -3 7 -1 6 4 -3 10 57 57 105 81 15 8 27 18 27 23 0
5 5 6 10 3 6 -3 10 -3 10 2 0 9 65 40 95 45 15 3 30 -11 61 -56 35 -52 39 -64
31 -86z m838 -70 c33 -7 76 -18 95 -26 19 -7 70 -25 114 -40 43 -15 90 -37
105 -49 14 -13 40 -25 57 -29 24 -5 33 -14 37 -34 3 -15 4 -28 2 -30 -1 -1
-37 11 -80 27 -133 52 -287 66 -432 40 -51 -9 -90 -12 -87 -8 3 5 0 9 -6 9 -6
0 -9 4 -6 8 8 14 -47 12 -89 -2 -38 -14 -70 -12 -60 4 3 4 -9 13 -25 20 -17 7
-30 17 -30 22 0 5 -5 6 -10 3 -6 -4 -7 -12 -4 -18 4 -7 3 -9 -1 -4 -5 4 -14
23 -21 42 -19 55 4 68 129 73 56 2 104 6 107 9 8 8 139 -3 205 -17z m-618
-162 c-16 -11 -196 -8 -203 3 -2 4 -12 5 -22 2 -27 -10 40 41 73 56 16 7 36
22 43 33 14 19 16 18 68 -33 38 -37 50 -55 41 -61z m-1887 -738 c0 -5 -2 -10
-4 -10 -3 0 -8 5 -11 10 -3 6 -1 10 4 10 6 0 11 -4 11 -10z m5168 -36 c5 3 21
-3 33 -13 l24 -20 -42 11 c-29 7 -43 16 -43 27 0 13 2 13 9 2 5 -7 13 -11 19
-7z m-153 -374 c3 -5 1 -10 -4 -10 -6 0 -11 5 -11 10 0 6 2 10 4 10 3 0 8 -4
11 -10z m-5900 -2290 c-3 -5 -1 -10 6 -10 7 0 10 -3 6 -6 -9 -9 -28 6 -22 17
4 5 8 9 11 9 3 0 2 -4 -1 -10z m-20 -20 c3 -5 -1 -10 -10 -10 -9 0 -13 5 -10
10 3 6 8 10 10 10 2 0 7 -4 10 -10z m-45 -114 c0 -2 -6 -9 -14 -15 -11 -9 -16
-9 -22 0 -4 7 -3 9 4 5 6 -3 13 -2 17 4 6 10 15 14 15 6z m6281 -832 l24 -27
-27 18 c-16 9 -28 21 -28 26 0 14 5 11 31 -17z m-5561 -224 c0 -5 -2 -10 -4
-10 -3 0 -8 5 -11 10 -3 6 -1 10 4 10 6 0 11 -4 11 -10z m-75 -10 c-3 -5 -11
-10 -16 -10 -6 0 -7 5 -4 10 3 6 11 10 16 10 6 0 7 -4 4 -10z"/>
<path d="M4196 6892 c-2 -4 9 -8 25 -8 33 -2 33 4 1 11 -12 2 -24 1 -26 -3z"/>
<path d="M4633 6845 c0 -33 2 -45 4 -27 2 18 2 45 0 60 -2 15 -4 0 -4 -33z"/>
<path d="M4857 6893 c-4 -3 -7 -13 -7 -22 1 -13 3 -13 11 2 11 19 8 33 -4 20z"/>
<path d="M5624 6856 c1 -25 5 -48 9 -53 5 -4 5 0 1 10 -3 9 -2 17 4 17 5 0 12
-9 15 -21 4 -16 9 -19 24 -11 27 14 45 4 33 -18 -7 -13 -7 -21 0 -25 8 -5 8
-11 1 -19 -8 -9 -7 -13 4 -13 8 0 13 3 10 5 -3 3 1 12 8 20 8 11 8 14 0 9 -6
-4 -14 -3 -18 3 -3 5 -2 10 4 10 5 0 7 14 5 30 -4 20 -1 30 8 30 8 0 6 5 -5
11 -9 6 -15 15 -11 21 4 6 10 5 15 -3 6 -9 9 -10 9 -2 0 23 -29 40 -73 41
l-45 2 2 -44z m91 22 c4 -3 1 -9 -6 -14 -8 -4 -10 -3 -5 4 4 7 -3 10 -22 7
-16 -2 -35 1 -43 6 -9 6 0 8 28 6 23 -1 45 -5 48 -9z m-45 -21 c0 -4 4 -6 9
-3 4 3 17 -1 27 -9 12 -9 14 -14 6 -15 -8 0 -10 -5 -6 -12 4 -7 4 -10 -1 -6
-4 4 -17 3 -28 -3 -11 -6 -17 -7 -13 -1 3 5 -3 17 -14 27 -25 23 -25 34 0 32
11 -1 20 -5 20 -10z"/>
<path d="M5663 6837 c4 -14 26 -16 30 -3 1 5 -6 10 -16 12 -10 1 -16 -3 -14
-9z"/>
<path d="M5756 6888 c3 -5 10 -6 15 -3 15 10 10 -12 -7 -29 -9 -9 -11 -16 -4
-16 6 0 8 -5 4 -12 -5 -7 -3 -8 6 -3 10 6 12 4 7 -9 -4 -10 -7 -20 -7 -22 0
-3 -6 -2 -12 1 -7 4 -2 -3 11 -14 20 -18 21 -25 1 -23 -3 0 -5 -18 -5 -41 1
-23 -3 -49 -9 -57 -9 -13 -9 -13 5 -3 9 7 19 10 23 6 4 -4 -4 -13 -16 -21 -19
-11 -20 -12 -3 -8 20 6 20 6 1 -9 -11 -8 -15 -15 -10 -15 14 0 14 -31 1 -47
-6 -9 -6 -13 1 -13 6 0 9 -8 6 -17 -5 -14 -4 -15 4 -4 6 8 7 21 4 30 -5 14 -3
14 11 3 15 -13 15 -16 -1 -40 -9 -14 -12 -23 -7 -20 6 3 16 0 23 -8 8 -9 9
-14 2 -14 -6 0 -8 -4 -5 -10 3 -6 -1 -7 -9 -4 -9 3 -16 1 -16 -5 0 -6 3 -10 8
-10 19 3 33 -2 27 -11 -3 -5 -13 -7 -23 -4 -13 5 -14 4 -3 -4 10 -7 10 -14 3
-29 -8 -14 -8 -23 0 -31 17 -17 40 -3 32 20 -3 11 -2 18 2 15 5 -3 10 6 10 19
1 13 -2 24 -7 24 -5 0 -9 7 -9 16 0 9 5 12 13 8 9 -6 9 -5 0 8 -7 8 -9 18 -5
22 4 4 1 6 -7 4 -7 -2 -16 3 -18 10 -3 7 -1 12 4 11 22 -4 25 3 8 21 -20 22
-8 28 14 8 8 -7 6 -1 -3 13 -9 14 -13 29 -9 34 5 4 2 5 -5 1 -7 -4 -10 -12 -7
-17 3 -5 -1 -6 -10 -3 -14 6 -13 10 7 32 13 14 17 22 10 18 -14 -8 -12 19 2
43 6 9 5 12 -1 8 -6 -4 -17 1 -24 10 -12 15 -12 16 5 10 14 -6 16 -4 9 5 -10
15 -11 28 -1 43 4 6 3 17 -2 25 -5 8 -5 22 1 32 7 12 6 18 -1 18 -6 0 -8 5 -4
12 4 7 8 21 9 33 0 15 -6 21 -22 21 -12 0 -19 -4 -17 -8z m54 -468 c-6 -10
-10 -23 -9 -27 3 -17 -1 -24 -11 -18 -9 6 14 65 26 65 2 0 0 -9 -6 -20z"/>
<path d="M4238 6863 c7 -3 16 -2 19 1 4 3 -2 6 -13 5 -11 0 -14 -3 -6 -6z"/>
<path d="M5713 6698 c-20 -32 -21 -81 -2 -83 13 -2 16 4 14 29 -2 17 1 36 6
43 7 7 6 13 0 17 -5 4 -13 1 -18 -6z m3 -53 c-1 -8 -5 -17 -8 -21 -5 -4 -4 16
1 34 3 9 9 -1 7 -13z"/>
<path d="M4642 6612 c-2 -71 1 -92 14 -102 13 -12 17 -11 24 0 5 9 5 17 -1 20
-5 4 -12 38 -16 76 -9 103 -19 106 -21 6z"/>
<path d="M5713 6555 c0 -8 4 -12 9 -9 5 3 6 10 3 15 -9 13 -12 11 -12 -6z"/>
<path d="M5818 6356 c-10 -7 -15 -15 -12 -19 3 -3 -1 -15 -8 -26 -11 -18 -11
-23 2 -31 8 -5 10 -10 5 -10 -6 0 -10 -16 -10 -34 0 -38 15 -34 17 5 1 13 9
33 17 43 12 15 12 17 2 11 -11 -6 -13 -4 -7 11 8 17 17 64 13 64 -1 0 -10 -7
-19 -14z m-2 -56 c0 -12 -4 -16 -9 -11 -5 5 -6 14 -3 20 10 15 12 14 12 -9z"/>
<path d="M6880 6285 c-10 -12 -10 -15 4 -15 9 0 16 7 16 15 0 8 -2 15 -4 15
-2 0 -9 -7 -16 -15z"/>
<path d="M5810 6159 c0 -5 5 -7 10 -4 6 3 10 8 10 11 0 2 -4 4 -10 4 -5 0 -10
-5 -10 -11z"/>
<path d="M6852 5599 c-23 -16 -45 -29 -48 -29 -3 0 -12 -7 -20 -15 -13 -13 -7
-14 48 -8 35 3 64 7 66 8 2 2 2 19 0 38 l-3 36 -43 -30z"/>
<path d="M5810 5310 c-8 -5 -12 -12 -9 -15 4 -3 12 1 19 10 14 17 11 19 -10 5z"/>
<path d="M5754 5302 c3 -5 0 -13 -6 -15 -9 -4 -10 -6 -1 -6 17 -1 25 16 12 25
-7 4 -9 3 -5 -4z"/>
<path d="M5706 5263 c-6 -14 -5 -15 5 -6 7 7 10 15 7 18 -3 3 -9 -2 -12 -12z"/>
<path d="M5785 5240 c-2 -3 5 -6 15 -7 11 -1 22 2 25 7 3 5 -4 8 -16 7 -11 -1
-22 -4 -24 -7z"/>
<path d="M5750 5209 c0 -5 5 -7 10 -4 6 3 10 8 10 11 0 2 -4 4 -10 4 -5 0 -10
-5 -10 -11z"/>
<path d="M5949 5119 c-11 -7 -8 -9 11 -9 20 0 22 -2 10 -10 -13 -8 -13 -10 2
-10 25 0 31 18 10 29 -11 6 -24 6 -33 0z"/>
<path d="M1100 5110 c0 -5 -7 -7 -15 -4 -8 4 -15 2 -15 -3 0 -5 11 -9 24 -9
15 0 22 5 19 13 -6 15 -13 17 -13 3z"/>
<path d="M1390 5110 c8 -5 20 -10 25 -10 6 0 3 5 -5 10 -8 5 -19 10 -25 10 -5
0 -3 -5 5 -10z"/>
<path d="M1040 5100 c-9 -6 -10 -10 -3 -10 6 0 15 5 18 10 8 12 4 12 -15 0z"/>
<path d="M5248 5098 c8 -8 8 -15 1 -24 -7 -9 -6 -12 3 -10 22 3 39 17 32 27
-3 5 -10 7 -15 4 -5 -4 -9 -1 -9 4 0 6 -5 11 -12 11 -9 0 -9 -3 0 -12z"/>
<path d="M5990 5080 c0 -5 7 -10 16 -10 8 0 12 5 9 10 -3 6 -10 10 -16 10 -5
0 -9 -4 -9 -10z"/>
<path d="M6050 4640 c0 -5 5 -10 10 -10 6 0 10 5 10 10 0 6 -4 10 -10 10 -5 0
-10 -4 -10 -10z"/>
<path d="M5857 1545 c-4 -8 -3 -16 1 -19 4 -3 9 4 9 15 2 23 -3 25 -10 4z"/>
<path d="M5896 1523 c23 -17 34 -16 34 2 0 10 -9 14 -26 13 -23 -2 -24 -4 -8
-15z"/>
<path d="M6040 1421 c0 -13 7 -18 25 -18 25 0 25 0 9 18 -9 11 -21 19 -26 19
-4 0 -8 -8 -8 -19z"/>
<path d="M190 1240 c0 -5 5 -10 11 -10 5 0 8 -4 5 -8 -3 -5 1 -9 9 -9 21 0 19
10 -5 25 -12 7 -20 8 -20 2z"/>
<path d="M180 1216 c14 -18 13 -18 -9 -11 -17 5 -22 4 -19 -6 3 -9 19 -12 52
-10 28 1 54 -3 63 -11 9 -7 14 -8 10 -2 -4 7 0 14 8 17 10 4 12 1 9 -11 -5
-15 -4 -15 6 1 6 9 17 14 23 11 9 -5 9 -4 0 6 -6 7 -25 13 -42 14 -17 0 -31 5
-31 11 0 5 -5 3 -10 -5 -12 -20 -30 -20 -55 -1 -19 15 -19 15 -5 -3z"/>
<path d="M5791 1004 c-25 -55 -25 -54 -8 -54 23 0 59 46 55 71 -5 39 -26 32
-47 -17z"/>
</g>
</svg>
